<svg width="56" height="50" viewBox="0 0 56 50" fill="none" xmlns="http://www.w3.org/2000/svg">
<g clip-path="url(#clip0_1_995)">
<path d="M40.8177 49.8124C40.2577 49.0624 42.3733 48 44.8622 45.0625C46.1066 43.5625 47.5377 41.6875 48.72 39.25C49.9022 36.875 50.96 33.9375 51.0844 30.6875C51.2711 26.75 50.4622 23.1249 47.7866 21.1874C44.3022 18.6874 37.3955 23.7499 32.9777 26.8124C31.92 27.5624 28.56 29.9375 25.3866 29.5625C21.9022 29.0625 20.2844 26.4374 20.0355 24.3124C19.5377 19.5624 25.5111 10.875 23.5822 7.49995C22.8355 6.24995 20.5955 6.18746 17.92 6.93746C14.4977 7.93746 9.83106 10.8124 7.03106 14.6249C4.0444 18.7499 5.41328 23.3125 6.09773 25.0625C7.52884 28.5 9.8933 31.5 12.1955 34.0625C16.9244 39.1875 21.5288 42.75 24.5155 45.375C27.6266 47.9375 29.6177 49.0624 29.0577 49.8124C28.56 50.5624 26.7555 49.25 23.2088 47.25C19.7244 45.1875 14.6844 42.0624 9.20884 36.9999C6.53329 34.4374 3.7333 31.375 1.61774 27C0.684407 25 -1.99115 18.3125 2.55107 11.625C4.10663 9.31246 6.03552 7.37496 8.2133 5.68746C10.4533 4.06246 19.7244 -2.06254 26.2577 2.06246C28.4355 3.49996 29.1822 5.81245 29.4311 6.81245C30.7377 12.8749 26.7555 18.9375 26.0711 22.625C25.9466 23.4375 26.4444 24.0624 27.6266 23.3749C30.3022 21.9374 34.0977 19.4375 36.2755 18.1875C43.3066 14.1875 48.0977 14 52.0177 18.125C52.8889 18.9375 56.1866 23.375 55.1911 31.0625C54.6311 35.0625 53.2 38.125 51.52 40.875C49.9022 43.4375 48.0355 45.3124 46.4177 46.6874C43.1822 49.3749 41.1911 50.3749 40.8177 49.8124Z" fill="white"/>
</g>
<defs>
<clipPath id="clip0_1_995">
<rect width="56" height="50" fill="white"/>
</clipPath>
</defs>
</svg>
