<svg width="24" height="24" viewBox="0 0 24 24" fill="none" xmlns="http://www.w3.org/2000/svg">
<path fill-rule="evenodd" clip-rule="evenodd" d="M9.75015 9C9.75015 6.10051 12.1007 3.75 15.0002 3.75C17.8996 3.75 20.2502 6.10051 20.2502 9C20.2502 11.8995 17.8996 14.25 15.0002 14.25C12.1007 14.25 9.75015 11.8995 9.75015 9ZM15.0002 2.25C11.2722 2.25 8.25015 5.27208 8.25015 9C8.25015 10.4486 8.70645 11.7906 9.48315 12.8901C8.78172 12.7302 8.01609 12.9234 7.46982 13.4697L3.46982 17.4697C2.62464 18.3148 2.62464 19.6852 3.46982 20.5303C4.315 21.3755 5.6853 21.3755 6.53048 20.5303L10.5305 16.5303C11.0767 15.9841 11.2699 15.2184 11.1101 14.517C12.2096 15.2937 13.5516 15.75 15.0002 15.75C18.7281 15.75 21.7502 12.7279 21.7502 9C21.7502 5.27208 18.7281 2.25 15.0002 2.25ZM8.53048 14.5303C8.78987 14.2709 9.21043 14.2709 9.46982 14.5303C9.72921 14.7897 9.72921 15.2103 9.46982 15.4697L5.46982 19.4697C5.21043 19.7291 4.78987 19.7291 4.53048 19.4697C4.27109 19.2103 4.27109 18.7897 4.53048 18.5303L8.53048 14.5303Z" fill="black"/>
</svg>
